# xmcd
#
# Track frame offsets:
#	150
#	10881
#	29416
#	41422
#	55118
#	68440
#	83208
#	96438
#	108735
#	120025
#	131935
#	144761
#	157844
#	164705
#	179916
#	198275
#	208669
#	219577
#	232968
#	246867
#	259754
#	270352
#	284454
#	296225
#	306531
#
# Disc length: 4256 seconds
#
# Revision: 0
# Processed by: cddbd v1.5.2PL0 Copyright (c) Steve Scherf et al.
# Submitted via: dBpowerAMP V4.0
#
DISCID=74109e19
DTITLE=Various Artist - 100 Baladas romaticas - Vol 1
DYEAR=2003
DGENRE=Ballad
TTITLE0=Charles Aznavour - Je en peix pas rentre chez moi
TTITLE1=Snow White - Bird of paradise
TTITLE2=Cristal Gayle - Don't it make my brown eyes blue
TTITLE3=Van Morrison - Brown eyes girl
TTITLE4=Timi Yuro - I'm sorry
TTITLE5=Tom Jones - Uncahined melody
TTITLE6=Bread - Let your love go
TTITLE7=The Troggs - Love is all around
TTITLE8=Jackie Wilson - To be love
TTITLE9=Pat Boone - Moody river
TTITLE10=Jerry Buttler and Betty Everet - Let it be
TTITLE11=Ray Paterson - Tell Laura I love ger
TTITLE12=Frank Sinatra - Somebody loves me
TTITLE13=Paul Anka - Bilitis
TTITLE14=Brook Benton - Rain night in Georgia
TTITLE15=The Birds - Mr tambourine man
TTITLE16=Paul Anka - Lonely boy
TTITLE17=Dione Warwick - Anyone who had a heart
TTITLE18=The Brothers four - Greenfields
TTITLE19=Righteos Brothers - EBB Tide
TTITLE20=Charles Aznavour - For me formidable
TTITLE21=Daniel Cory et Brigitte - Je t'aime moi non plus
TTITLE22=Andy Williams - A summer place
TTITLE23=Tom Jones - Please release me
TTITLE24=Roy Orbison - Blue angel
EXTD=
EXTT0=
EXTT1=
EXTT2=
EXTT3=
EXTT4=
EXTT5=
EXTT6=
EXTT7=
EXTT8=
EXTT9=
EXTT10=
EXTT11=
EXTT12=
EXTT13=
EXTT14=
EXTT15=
EXTT16=
EXTT17=
EXTT18=
EXTT19=
EXTT20=
EXTT21=
EXTT22=
EXTT23=
EXTT24=
PLAYORDER=
